<svg width="28" height="20" viewBox="0 0 28 20" fill="none" xmlns="http://www.w3.org/2000/svg">
<path d="M3.60742 6.76759C3.60742 6.76759 5.96456 -0.259439 12.4579 0.0074123C18.9512 0.274263 20.7301 5.52254 20.9526 7.21239C21.1751 8.90224 21.2537 8.6682 21.2537 8.6682C21.2537 8.6682 27.7714 9.07348 27.0283 14.9156C26.2852 20.7577 21.4225 19.9484 21.4225 19.9484L3.60758 20V18.0024H21.4225C21.4225 18.0024 25.0722 18.3245 25.2021 14.9164C25.3319 11.5083 23.3585 10.6769 21.2537 10.4949C19.1488 10.3129 19.2534 8.6682 19.2534 8.6682C19.2534 8.6682 18.799 1.98395 12.458 1.88756C6.11704 1.79116 4.82325 8.88287 4.82325 8.88287L3.60742 6.76759Z" fill="#388CE0"/>
<path d="M9.40302 11.6366C10.1267 11.6366 10.6882 11.8273 11.0877 12.2085C11.4871 12.5898 11.7089 13.023 11.753 13.508H10.9982C10.9126 13.1397 10.7414 12.8479 10.4846 12.6326C10.2304 12.4173 9.8725 12.3097 9.41081 12.3097C8.84796 12.3097 8.39275 12.5081 8.04519 12.905C7.70022 13.2992 7.52773 13.9049 7.52773 14.7219C7.52773 15.3911 7.68336 15.9345 7.99461 16.3521C8.30846 16.7671 8.77534 16.9746 9.39524 16.9746C9.96587 16.9746 10.4003 16.7554 10.6986 16.3171C10.8568 16.0862 10.9748 15.7827 11.0527 15.4067H11.8074C11.74 16.0084 11.5169 16.5129 11.1383 16.9201C10.6843 17.4103 10.0722 17.6554 9.30187 17.6554C8.63787 17.6554 8.08021 17.4544 7.62889 17.0524C7.03492 16.5207 6.73793 15.6997 6.73793 14.5896C6.73793 13.7466 6.961 13.0554 7.40713 12.5159C7.88957 11.9297 8.55486 11.6366 9.40302 11.6366Z" fill="#FF3967"/>
<path d="M0 14.6643V9.48975H3.96715C4.14921 9.48975 4.31451 9.53526 4.46304 9.6263C4.61636 9.71733 4.73853 9.83951 4.82957 9.99283C4.9206 10.1414 4.96612 10.3067 4.96612 10.4887V11.5021C4.96612 11.5644 4.96133 11.6242 4.95174 11.6817C4.94216 11.7392 4.92539 11.7943 4.90144 11.847C4.98289 11.9572 5.04757 12.0722 5.09548 12.192C5.14819 12.3118 5.17454 12.4316 5.17454 12.5513V13.6653C5.17454 13.8474 5.12902 14.0151 5.03799 14.1684C4.94695 14.3169 4.82478 14.4367 4.67146 14.5277C4.51814 14.6188 4.35044 14.6643 4.16838 14.6643H0ZM1.03491 13.7084H4.12526C4.14921 13.7084 4.17077 13.7012 4.18994 13.6869C4.2091 13.6677 4.21869 13.6461 4.21869 13.6222V12.5945C4.21869 12.5705 4.2091 12.5513 4.18994 12.537C4.17077 12.5178 4.14921 12.5082 4.12526 12.5082H1.03491C1.01095 12.5082 0.989391 12.5178 0.970226 12.537C0.955852 12.5513 0.948665 12.5705 0.948665 12.5945V13.6222C0.948665 13.6461 0.955852 13.6677 0.970226 13.6869C0.989391 13.7012 1.01095 13.7084 1.03491 13.7084ZM1.03491 11.5524H3.92402C3.94798 11.5524 3.96715 11.5452 3.98152 11.5308C3.99589 11.5116 4.00308 11.4901 4.00308 11.4661V10.5318C4.00308 10.5079 3.99589 10.4887 3.98152 10.4743C3.96715 10.4552 3.94798 10.4456 3.92402 10.4456H1.03491C1.01095 10.4456 0.989391 10.4552 0.970226 10.4743C0.955852 10.4887 0.948665 10.5079 0.948665 10.5318V11.4661C0.948665 11.4901 0.955852 11.5116 0.970226 11.5308C0.989391 11.5452 1.01095 11.5524 1.03491 11.5524Z" fill="#394657"/>
</svg>
