<svg width="355" height="200" viewBox="0 0 355 200" fill="none" xmlns="http://www.w3.org/2000/svg">
<path d="M105 83L267 89.3074V188H105V83Z" fill="url(#paint0_linear_1085_106)" fill-opacity="0.12"/>
<path d="M238 80H122V188H238V80Z" fill="url(#paint1_linear_1085_106)" fill-opacity="0.25"/>
<path d="M328 76V164" stroke="url(#paint2_linear_1085_106)" stroke-linecap="round"/>
<path d="M296 12V100" stroke="url(#paint3_linear_1085_106)" stroke-linecap="round"/>
<path d="M72 12V100" stroke="url(#paint4_linear_1085_106)" stroke-linecap="round"/>
<path d="M40 76V164" stroke="url(#paint5_linear_1085_106)" stroke-linecap="round"/>
<g filter="url(#filter0_f_1085_106)">
<path d="M131 106C134.314 106 137 101.747 137 96.5C137 91.2533 134.314 87 131 87C127.686 87 125 91.2533 125 96.5C125 101.747 127.686 106 131 106Z" fill="#D4D4FF"/>
</g>
<defs>
<filter id="filter0_f_1085_106" x="101" y="63" width="60" height="67" filterUnits="userSpaceOnUse" color-interpolation-filters="sRGB">
<feFlood flood-opacity="0" result="BackgroundImageFix"/>
<feBlend mode="normal" in="SourceGraphic" in2="BackgroundImageFix" result="shape"/>
<feGaussianBlur stdDeviation="12" result="effect1_foregroundBlur_1085_106"/>
</filter>
<linearGradient id="paint0_linear_1085_106" x1="186" y1="79.6608" x2="186" y2="188" gradientUnits="userSpaceOnUse">
<stop stop-color="#6C52FF"/>
<stop offset="1" stop-color="#6C52FF" stop-opacity="0"/>
</linearGradient>
<linearGradient id="paint1_linear_1085_106" x1="180" y1="80" x2="180" y2="188" gradientUnits="userSpaceOnUse">
<stop stop-color="#6C52FF"/>
<stop offset="1" stop-color="#6C52FF" stop-opacity="0"/>
</linearGradient>
<linearGradient id="paint2_linear_1085_106" x1="328.5" y1="76" x2="328.5" y2="164" gradientUnits="userSpaceOnUse">
<stop stop-color="#B6B1FF"/>
<stop offset="1" stop-color="#B6B1FF" stop-opacity="0"/>
</linearGradient>
<linearGradient id="paint3_linear_1085_106" x1="296.5" y1="12" x2="296.5" y2="100" gradientUnits="userSpaceOnUse">
<stop stop-color="#B6B1FF"/>
<stop offset="1" stop-color="#B6B1FF" stop-opacity="0"/>
</linearGradient>
<linearGradient id="paint4_linear_1085_106" x1="72.5" y1="12" x2="72.5" y2="100" gradientUnits="userSpaceOnUse">
<stop stop-color="#B6B1FF"/>
<stop offset="1" stop-color="#B6B1FF" stop-opacity="0"/>
</linearGradient>
<linearGradient id="paint5_linear_1085_106" x1="40.5" y1="76" x2="40.5" y2="164" gradientUnits="userSpaceOnUse">
<stop stop-color="#B6B1FF"/>
<stop offset="1" stop-color="#B6B1FF" stop-opacity="0"/>
</linearGradient>
</defs>
</svg>
