<svg width="179" height="172" viewBox="0 0 179 172" fill="none" xmlns="http://www.w3.org/2000/svg">
<path d="M78.9455 147.263L172.183 93.1926L154.218 110.65L60.0705 171.823L78.9455 147.263Z" fill="url(#paint0_linear_1083_77)"/>
<path d="M9.58689 84.9526L25.0171 53.904L78.9132 147.255L60.0717 171.823L9.58689 84.9526Z" fill="url(#paint1_linear_1083_77)"/>
<rect x="25.7025" y="54.0873" width="106.792" height="106.792" transform="rotate(-30 25.7025 54.0873)" fill="url(#paint2_linear_1083_77)"/>
<rect x="25.7025" y="54.0873" width="106.792" height="106.792" transform="rotate(-30 25.7025 54.0873)" stroke="url(#paint3_linear_1083_77)"/>
<rect x="25.7025" y="54.0873" width="106.792" height="106.792" transform="rotate(-30 25.7025 54.0873)" stroke="url(#paint4_linear_1083_77)" stroke-opacity="0.8"/>
<g filter="url(#filter0_i_1083_77)">
<g clip-path="url(#clip0_1083_77)">
<path d="M77.4609 47.0612C75.9779 49.3175 75.7355 50.5977 76.6232 51.4852C77.2664 52.1242 77.6231 52.8421 77.6808 53.617C77.7685 54.519 77.3937 55.6447 76.8225 56.2054C75.9395 57.0761 75.7993 57.2581 75.739 57.6537C75.7074 57.874 75.7434 58.2863 75.8113 58.579C75.9773 59.2915 77.4569 61.8292 77.9238 62.238C78.4312 62.6668 79.0984 62.7723 79.8508 62.5255C81.3448 62.0383 82.5401 62.3585 83.5823 63.4888C83.9002 63.8394 84.0331 64.0946 84.197 64.6784C84.4663 65.6198 84.6975 66.0204 85.1265 66.2634C85.955 66.7233 89.7446 66.7871 90.4915 66.3558C90.9399 66.0825 91.1168 65.7639 91.2927 64.8685C91.4943 63.8427 92.0754 63.0742 92.9527 62.6688C93.7155 62.315 94.6875 62.2734 95.3538 62.5526C95.8945 62.789 96.4371 62.7788 96.9026 62.5101C97.5737 62.1226 99.1007 59.2924 99.2615 58.1459C99.3234 57.7782 99.2701 57.6358 98.8801 57.1104C97.6836 55.4629 97.6899 55.4737 97.603 54.7733C97.4869 53.7723 97.8618 52.6465 98.527 51.9738C99.2726 51.2402 99.4449 50.9386 99.4535 50.4285C99.4478 49.4936 98.2106 47.0757 97.2484 46.1591C96.8139 45.7315 96.0859 45.5456 95.5704 45.7278C94.4512 46.1141 93.1635 45.9338 92.2488 45.2495C91.7618 44.8811 91.6339 44.7096 91.3176 44.0117C90.5033 42.2013 90.4209 42.1335 88.6772 41.9133C87.1026 41.711 85.4473 41.844 84.8194 42.2065C84.3431 42.4815 84.2707 42.581 84.0431 43.3619C83.6733 44.5714 83.3836 44.9696 82.5501 45.4508C81.7165 45.9321 81.2268 45.9839 79.9945 45.6994C79.2044 45.506 79.082 45.519 78.6057 45.794C78.2222 46.0298 77.9275 46.3443 77.4609 47.0612ZM86.9916 50.2188C87.8948 50.0582 89.2188 50.3764 90.0197 50.9387C92.0945 52.3823 92.2862 55.3893 90.4307 57.2255C89.0723 58.5727 86.8744 58.7158 85.232 57.5712C84.3144 56.9318 83.6315 55.7239 83.5474 54.6033C83.3968 52.4675 84.8954 50.5631 86.9916 50.2188Z" fill="white"/>
<path d="M77.6794 66.1456C75.8017 68.9184 74.9952 71.9965 75.2611 75.3071C75.3929 77.0353 75.8044 78.573 76.4202 79.6897C76.8907 80.5295 76.9873 80.6469 77.5063 80.8958C78.6033 81.4459 80.082 80.982 80.7096 79.8691C81.105 79.1789 81.1131 78.568 80.738 77.5433C80.0223 75.6037 79.9313 73.6211 80.47 71.6791C80.8257 70.4201 81.2497 69.5546 82.1555 68.2234C82.6608 67.4986 82.7681 67.2346 82.7659 66.7307C82.7668 65.5322 82.1939 64.6649 81.1194 64.3038C80.4051 64.0667 79.8379 64.1343 79.1126 64.5531C78.6472 64.8218 78.3849 65.1176 77.6794 66.1456Z" fill="white"/>
<path d="M99.9551 52.7222C99.6084 53.1966 99.4467 54.1415 99.6076 54.7703C99.7936 55.4424 100.144 55.8749 100.852 56.2749C101.321 56.5379 101.575 56.5787 102.606 56.4888C104.223 56.3638 105.248 56.4646 106.609 56.8477C108.474 57.4023 109.967 58.3879 111.247 59.9295C111.946 60.7668 112.48 61.0652 113.275 61.0679C114.553 61.0808 115.694 60.0322 115.766 58.8071C115.81 58.2332 115.756 58.0908 115.264 57.2635C114.879 56.6202 114.45 56.1027 113.861 55.5332C110.719 52.5409 106.483 51.1039 102.291 51.6187C101.213 51.7506 100.385 52.1419 99.9551 52.7222Z" fill="white"/>
<path d="M78.9556 83.1049C76.5727 85.5777 76.2158 89.3344 78.1123 92.1943C79.1722 93.8052 80.5347 94.765 82.4238 95.2621C84.2788 95.75 86.1227 95.4937 87.8439 94.4999C89.5651 93.5062 90.709 92.0375 91.214 90.1871C91.7281 88.3025 91.5781 86.6427 90.713 84.9193C89.1595 81.8036 85.6035 80.2194 82.2819 81.1412C81.263 81.4264 79.6562 82.3684 78.9556 83.1049Z" fill="white"/>
<path d="M96.2358 73.056C93.3034 76.0769 93.1704 80.6715 95.944 83.7756C96.7122 84.6311 98.1646 85.5967 99.222 85.9533C100.279 86.3098 102.023 86.4292 103.146 86.1994C103.905 86.0642 104.238 85.9155 105.493 85.1905C107.247 84.178 107.854 83.5535 108.622 81.9841C109.252 80.7255 109.486 79.5802 109.396 78.1743C109.097 73.4825 105.01 70.2277 100.338 70.9617C99.5837 71.0798 99.2385 71.2069 98.0786 71.8477C97.118 72.359 96.5693 72.7336 96.2358 73.056Z" fill="white"/>
<path d="M113.491 63.1674C111.108 65.6402 110.751 69.3969 112.647 72.2568C113.707 73.8677 115.07 74.8275 116.959 75.3246C118.814 75.8125 120.658 75.5562 122.379 74.5624C124.133 73.5499 125.244 72.1 125.761 70.1704C126.132 68.7873 126.13 67.6338 125.745 66.268C124.663 62.4184 120.645 60.1339 116.817 61.2037C115.798 61.4889 114.191 62.4309 113.491 63.1674Z" fill="white"/>
<path d="M82.7188 99.5669C81.5717 100.33 81.3215 100.547 80.8886 101.172C80.2077 102.143 79.9527 103.026 80.0242 104.125L80.0857 105.056L81.3158 107.262C82.9054 110.14 83.5019 110.748 85.2953 111.33C86.9458 111.863 88.332 111.539 92.1426 109.714C94.8595 108.42 100.429 105.017 100.565 104.578C100.583 104.509 100.322 104.256 99.9935 104.013C98.8006 103.171 98.2378 102.472 96.8815 100.122C95.8815 98.3904 95.5936 97.7917 95.4201 97.1412C95.0936 95.9008 95.089 94.5178 95.4139 93.3055C95.6152 92.5541 95.6463 92.2331 95.5114 92.2244C95.2649 92.2224 84.3667 98.4711 82.7188 99.5669Z" fill="white"/>
<path d="M117.48 79.4536C116.984 79.769 116.537 80.0702 116.485 80.1293C116.438 80.1993 116.943 80.3986 117.622 80.5987C119.051 81.0001 119.828 81.4463 120.807 82.4404C121.414 83.0424 121.703 83.4675 122.74 85.2645C124.078 87.5811 124.439 88.5563 124.509 90.0025C124.54 90.5326 124.602 90.7138 124.718 90.69C124.806 90.6679 125.591 90.3016 126.462 89.8853C129.842 88.2655 134.338 85.4531 136.42 83.6593C138.081 82.21 138.728 80.2055 138.157 78.1676C137.877 77.1316 136.039 73.949 135.293 73.1817C134.357 72.2355 133.188 71.7849 131.853 71.8482C130.651 71.8923 130.271 72.0831 124.179 75.5569C120.99 77.3836 117.976 79.1382 117.48 79.4536Z" fill="white"/>
<path d="M102.504 89.1663C100.862 90.1721 99.2559 91.2149 98.9424 91.497C97.7517 92.5597 97.1213 94.0928 97.2584 95.6302C97.3545 96.6717 98.2655 98.5995 99.5045 100.396C100.333 101.606 100.512 101.791 101.29 102.338C102.721 103.316 104.491 103.608 106.08 103.109C108.558 102.327 114.858 98.9644 117.946 96.763C121.067 94.5428 121.788 93.7659 122.222 92.1437C122.672 90.4983 122.524 89.5159 121.581 87.534C119.873 83.974 118.213 82.4496 115.999 82.4145C114.659 82.3941 114.074 82.6308 110.141 84.743C108.172 85.8076 106.328 86.8143 106.031 87.0001C105.745 87.1797 104.157 88.1542 102.504 89.1663Z" fill="white"/>
</g>
</g>
<defs>
<filter id="filter0_i_1083_77" x="54" y="28" width="87.4258" height="88.4258" filterUnits="userSpaceOnUse" color-interpolation-filters="sRGB">
<feFlood flood-opacity="0" result="BackgroundImageFix"/>
<feBlend mode="normal" in="SourceGraphic" in2="BackgroundImageFix" result="shape"/>
<feColorMatrix in="SourceAlpha" type="matrix" values="0 0 0 0 0 0 0 0 0 0 0 0 0 0 0 0 0 0 127 0" result="hardAlpha"/>
<feOffset dy="1"/>
<feGaussianBlur stdDeviation="1"/>
<feComposite in2="hardAlpha" operator="arithmetic" k2="-1" k3="1"/>
<feColorMatrix type="matrix" values="0 0 0 0 0.352941 0 0 0 0 0.188235 0 0 0 0 0.968627 0 0 0 1 0"/>
<feBlend mode="normal" in2="shape" result="effect1_innerShadow_1083_77"/>
</filter>
<linearGradient id="paint0_linear_1083_77" x1="62.3095" y1="167.047" x2="175.193" y2="98.4058" gradientUnits="userSpaceOnUse">
<stop offset="0.458855" stop-color="#5A30F7"/>
<stop offset="1" stop-color="#D4D4FF"/>
</linearGradient>
<linearGradient id="paint1_linear_1083_77" x1="13.872" y1="105.419" x2="53.4413" y2="99.5068" gradientUnits="userSpaceOnUse">
<stop stop-color="#D4D4FF"/>
<stop offset="1" stop-color="#6C52FF"/>
</linearGradient>
<linearGradient id="paint2_linear_1083_77" x1="110.295" y1="76.756" x2="29.1619" y2="148.605" gradientUnits="userSpaceOnUse">
<stop stop-color="#D4D4FF"/>
<stop offset="1" stop-color="#9185FF"/>
</linearGradient>
<linearGradient id="paint3_linear_1083_77" x1="27.7041" y1="53.5809" x2="63.5298" y2="82.3828" gradientUnits="userSpaceOnUse">
<stop stop-color="white"/>
<stop offset="1" stop-color="white" stop-opacity="0"/>
</linearGradient>
<linearGradient id="paint4_linear_1083_77" x1="92.8421" y1="115.133" x2="121.101" y2="161.29" gradientUnits="userSpaceOnUse">
<stop stop-color="white" stop-opacity="0"/>
<stop offset="1" stop-color="white"/>
</linearGradient>
<clipPath id="clip0_1083_77">
<rect width="64" height="64" fill="white" transform="translate(54 60) rotate(-30)"/>
</clipPath>
</defs>
</svg>
